<svg height="246.227" viewBox="0 0 429.612 246.227" width="429.612" xmlns="http://www.w3.org/2000/svg" xmlns:xlink="http://www.w3.org/1999/xlink"><linearGradient id="a" gradientUnits="userSpaceOnUse" x1="-54.758" x2="447.489" y1="290.643" y2="42.139"><stop offset=".15" stop-color="#329ff9"/><stop offset=".678" stop-color="#b3dcfc"/></linearGradient><linearGradient id="b" gradientUnits="userSpaceOnUse" x1="-121.058" x2="381.189" y1="323.448" y2="74.943"><stop offset=".313" stop-color="#fff"/><stop offset=".941" stop-color="#fff" stop-opacity="0"/></linearGradient><path d="m374.188 239.727-317 5c-25.081-1.929-67.134-35.036-52.772-87.781 8.772-32.219 47.772-61.219 110.772-41.219-4-66.5 44.875-110.5 97-114s107.5 33.5 109 106c35-16 80.325-5.161 99 33 23 47-7.658 96.84-46 99z" fill="url(#a)"/><path d="m374.188 239.727-317 5c-25.081-1.929-67.134-35.036-52.772-87.781 8.772-32.219 47.772-61.219 110.772-41.219-4-66.5 44.875-110.5 97-114s107.5 33.5 109 106c35-16 80.325-5.161 99 33 23 47-7.658 96.84-46 99z" fill="url(#b)"/><path d="m115.109 115.711c.06 3.9.3 7.9.71 12-50.44-16.01-90.38-1.26-108.8 21.79 12.38-28.97 50.04-52.19 108.09-33.79z" fill="#fff"/><path d="m413.279 217.861c9.51-18.58 11.38-42.72-.09-66.15-18.67-38.16-64-49-99-33-1.5-72.5-56.88-109.5-109-106-48.53 3.26-90.23 40.32-90.1 101.11-2.96-65.43 45.47-108.62 97.1-112.09 52.12-3.5 107.5 33.5 109 106 35-16 80.33-5.17 99 33 13.89 28.38 8.21 57.8-6.91 77.13z" fill="#fff"/><path d="m57.189 246.227c-.039 0-.077-.001-.115-.004-12.866-.99-31.595-10.14-44.436-28.353-8.677-12.307-17.397-32.934-9.669-61.318 4.424-16.247 16.053-30.518 31.906-39.154 14.939-8.138 40.637-15.29 78.705-3.741-1.305-30.399 8.581-58.583 27.96-79.573 18.213-19.727 43.927-32.066 70.548-33.853 28.11-1.888 55.98 7.794 76.471 26.562 21.153 19.374 32.905 46.538 34.066 78.665 17.159-7.249 36.934-8.348 54.622-2.976 19.615 5.958 35.344 19.306 44.289 37.586 11.325 23.143 10.629 49.697-1.863 71.031-10.452 17.851-27.424 29.113-45.4 30.126-.02.001-.041.002-.061.002l-317 5c-.008 0-.015 0-.023 0zm18.649-135.606c-17.507 0-30.543 4.517-39.528 9.412-15.139 8.247-26.236 21.845-30.446 37.307-7.422 27.258.921 47.021 9.226 58.801 12.188 17.287 30.372 26.15 42.146 27.085l316.899-4.998c16.958-.967 33.013-11.674 42.95-28.645 11.983-20.465 12.64-45.959 1.757-68.197-19.187-39.209-64.401-47.211-97.029-32.295-.459.21-.993.175-1.421-.094s-.692-.734-.702-1.239c-.667-32.265-12.133-59.498-33.156-78.753-19.891-18.217-46.954-27.614-74.245-25.781-50.116 3.365-99.578 46.333-95.603 112.413.03.493-.186.97-.576 1.273-.39.304-.904.396-1.375.246-14.841-4.711-27.772-6.536-38.897-6.536zm298.35 129.106h.01z" fill="#0571d3"/></svg>