<svg  id="exLUYWfE9Je1" xmlns="http://www.w3.org/2000/svg" xmlns:xlink="http://www.w3.org/1999/xlink" viewBox="0 0 487.709 823.243" shape-rendering="geometricPrecision" text-rendering="geometricPrecision"><path d="M244.984,285.028l16.127,519c.32,10.287-7.761,18.886-18.048,19.206s-18.886-7.761-19.206-18.048c-.011-.37-.01-.792,0-1.158l16.127-519c.043-1.381,1.197-2.465,2.578-2.422c1.326.041,2.379,1.115,2.422,2.422Z" fill="#232323"/><g id="exLUYWfE9Je3" transform="translate(.000001 0.000001)"><g transform="translate(.000001 0)"><path d="M242.984,284.528v-281.528l55.975,203.407c2.888,10.496-.058,21.736-7.723,29.466l-48.252,48.656v-.001Z" fill="#d9c6f4"/><path d="M242.984,284.528L3,431.721L147.125,277.658c7.437-7.95,18.558-11.315,29.155-8.822l66.703,15.692h.001Z" fill="#d9c6f4"/><path d="M242.984,284.528L484.709,428.844L281.367,372.635c-10.493-2.901-18.633-11.192-21.341-21.736l-17.042-66.371Z" fill="#d9c6f4"/></g><path d="M242.984,287.528c-.764,0-1.527-.29-2.112-.87-1.177-1.167-1.185-3.066-.018-4.243l48.251-48.656c6.89-6.948,9.558-17.124,6.961-26.557L240.092,3.796c-.439-1.597.499-3.249,2.097-3.688s3.249.499,3.688,2.097l55.975,203.407c3.165,11.5-.087,23.905-8.486,32.374l-48.251,48.656c-.586.591-1.358.888-2.13.888l-.001-.002Z" fill="#232323"/><path d="M2.999,434.721c-.734,0-1.47-.268-2.049-.809-1.21-1.132-1.272-3.03-.141-4.24L144.934,275.609c8.147-8.711,20.421-12.423,32.033-9.693l66.703,15.692c1.613.379,2.613,1.995,2.233,3.607s-1.996,2.612-3.606,2.233l-66.704-15.692c-9.524-2.241-19.593.806-26.278,7.951L5.19,433.77c-.59.631-1.39.951-2.191.951Z" fill="#232323"/><g transform="translate(-.000091 0)"><path d="M484.711,431.845c-.265,0-.534-.035-.801-.109L280.568,375.527c-11.497-3.178-20.481-12.329-23.448-23.881l-17.041-66.371c-.412-1.605.555-3.24,2.159-3.652c1.601-.412,3.239.555,3.651,2.16l17.042,66.371c2.434,9.477,9.804,16.983,19.234,19.59l203.342,56.209c1.598.442,2.534,2.094,2.093,3.691-.367,1.329-1.574,2.201-2.89,2.201h.001Z" fill="#232323"/><circle r="28.5" transform="translate(242.984 284.528)" fill="#232323"/></g></g>
<style>
#exLUYWfE9Je3{
  animation: rotate 2s linear infinite;
  transform-origin: center 285px;
  transform: translateY(-20px);
}

@keyframes rotate {

  0% {
    transform: rotate(0deg);
  }

  100% {
    transform: rotate(360deg);
  }

}</style>
</svg>
