<svg height="103" viewBox="0 0 186.83 102.67" width="187" xmlns="http://www.w3.org/2000/svg"><g fill="#4c9d80"><path d="m184.57 74.2c-1.8-3.75-4.67-6.08-7.5-8-3.34-2.31-8.51-3.44-15.79-3.44h-95.43a3.5 3.5 0 1 0 0 7h95.43c7.52 0 10.62 1.38 11.8 2.19a14.39 14.39 0 0 1 5.18 5.32c1.53 3.2 2.5 8.31.19 12.16a13.81 13.81 0 0 1 -10.73 6.29 3.5 3.5 0 0 0 .21 7h.23a20.64 20.64 0 0 0 16.28-9.72c3.75-6.23 2.56-13.79.13-18.8z"/><path d="m144.43 40.66a20.23 20.23 0 0 0 8.75-16.35 20.57 20.57 0 0 0 -1-6.41 25.56 25.56 0 0 0 -15-15.85c-4.34-1.78-7.18-2.22-12.64-1.99-6.18.26-11.54 2.05-15.63 5.18-5.12 3.95-7.87 10-7.18 15.83a3.5 3.5 0 0 0 7-.82c-.39-3.33 1.38-7 4.51-9.48 3.65-2.82 8.35-3.58 11.64-3.72 4.44-.19 6.35.1 9.75 1.48a18.57 18.57 0 0 1 10.88 11.47 13 13 0 0 1 -5.08 14.91c-3.48 2.42-8 3.45-15.07 3.45h-121.86a3.5 3.5 0 0 0 0 7h121.86c5.73.01 13.07-.52 19.07-4.7z"/></g></svg>